<mxfile host="app.diagrams.net" agent="Mozilla/5.0 (Windows NT 10.0; Win64; x64) AppleWebKit/537.36 (KHTML, like Gecko) Chrome/132.0.0.0 Safari/537.36" version="26.0.11">
  <diagram name="Page-1" id="zu18n_pFbllrng9b7EBe">
    <mxGraphModel dx="2049" dy="1114" grid="1" gridSize="10" guides="1" tooltips="1" connect="1" arrows="1" fold="1" page="1" pageScale="1" pageWidth="827" pageHeight="1169" math="0" shadow="0">
      <root>
        <mxCell id="0" />
        <mxCell id="1" parent="0" />
        <mxCell id="xK0XaiJXvr3UYsudPGjT-1" value="" style="rounded=0;whiteSpace=wrap;html=1;strokeColor=none;" vertex="1" parent="1">
          <mxGeometry x="50" y="160" width="920" height="970" as="geometry" />
        </mxCell>
        <mxCell id="UsO85r2VAABwQKt_Czv6-38" style="edgeStyle=none;curved=1;rounded=0;orthogonalLoop=1;jettySize=auto;html=1;entryX=0.5;entryY=0;entryDx=0;entryDy=0;fontSize=12;startSize=8;endSize=8;" parent="1" source="UsO85r2VAABwQKt_Czv6-1" target="UsO85r2VAABwQKt_Czv6-29" edge="1">
          <mxGeometry relative="1" as="geometry">
            <mxPoint x="155" y="189.9999999999999" as="targetPoint" />
          </mxGeometry>
        </mxCell>
        <mxCell id="UsO85r2VAABwQKt_Czv6-1" value="start" style="rounded=1;whiteSpace=wrap;html=1;fillColor=#d5e8d4;strokeColor=#82b366;" parent="1" vertex="1">
          <mxGeometry x="122.5" y="170" width="65" height="20" as="geometry" />
        </mxCell>
        <mxCell id="UsO85r2VAABwQKt_Czv6-40" style="edgeStyle=none;curved=1;rounded=0;orthogonalLoop=1;jettySize=auto;html=1;fontSize=12;startSize=8;endSize=8;" parent="1" source="UsO85r2VAABwQKt_Czv6-4" target="UsO85r2VAABwQKt_Czv6-6" edge="1">
          <mxGeometry relative="1" as="geometry" />
        </mxCell>
        <mxCell id="UsO85r2VAABwQKt_Czv6-4" value="build dependencies" style="rounded=0;whiteSpace=wrap;html=1;fillColor=#dae8fc;strokeColor=#6c8ebf;" parent="1" vertex="1">
          <mxGeometry x="105" y="370" width="100" height="60" as="geometry" />
        </mxCell>
        <mxCell id="UsO85r2VAABwQKt_Czv6-79" style="edgeStyle=none;curved=1;rounded=0;orthogonalLoop=1;jettySize=auto;html=1;entryX=0.5;entryY=0;entryDx=0;entryDy=0;fontSize=12;startSize=8;endSize=8;" parent="1" source="UsO85r2VAABwQKt_Czv6-6" target="UsO85r2VAABwQKt_Czv6-76" edge="1">
          <mxGeometry relative="1" as="geometry" />
        </mxCell>
        <mxCell id="UsO85r2VAABwQKt_Czv6-6" value="" style="rounded=0;whiteSpace=wrap;html=1;fillColor=#F2F7FC;strokeColor=#ACCAEC;" parent="1" vertex="1">
          <mxGeometry x="60" y="450" width="190" height="540" as="geometry" />
        </mxCell>
        <mxCell id="UsO85r2VAABwQKt_Czv6-41" style="edgeStyle=none;curved=1;rounded=0;orthogonalLoop=1;jettySize=auto;html=1;exitX=0.5;exitY=1;exitDx=0;exitDy=0;fontSize=12;startSize=8;endSize=8;" parent="1" source="UsO85r2VAABwQKt_Czv6-7" target="UsO85r2VAABwQKt_Czv6-12" edge="1">
          <mxGeometry relative="1" as="geometry" />
        </mxCell>
        <mxCell id="UsO85r2VAABwQKt_Czv6-7" value="step already ran?" style="rhombus;whiteSpace=wrap;html=1;fillColor=#dae8fc;strokeColor=#6c8ebf;" parent="1" vertex="1">
          <mxGeometry x="95" y="480" width="120" height="80" as="geometry" />
        </mxCell>
        <mxCell id="UsO85r2VAABwQKt_Czv6-10" value="&lt;i&gt;for each part&lt;/i&gt;" style="text;html=1;align=center;verticalAlign=middle;whiteSpace=wrap;rounded=0;" parent="1" vertex="1">
          <mxGeometry x="70" y="450" width="70" height="30" as="geometry" />
        </mxCell>
        <mxCell id="UsO85r2VAABwQKt_Czv6-43" style="edgeStyle=none;curved=1;rounded=0;orthogonalLoop=1;jettySize=auto;html=1;entryX=0.5;entryY=0;entryDx=0;entryDy=0;fontSize=12;startSize=8;endSize=8;" parent="1" source="UsO85r2VAABwQKt_Czv6-12" target="UsO85r2VAABwQKt_Czv6-13" edge="1">
          <mxGeometry relative="1" as="geometry" />
        </mxCell>
        <mxCell id="UsO85r2VAABwQKt_Czv6-12" value="explicit request?" style="rhombus;whiteSpace=wrap;html=1;fillColor=#dae8fc;strokeColor=#6c8ebf;" parent="1" vertex="1">
          <mxGeometry x="95" y="584.5" width="120" height="80" as="geometry" />
        </mxCell>
        <mxCell id="UsO85r2VAABwQKt_Czv6-42" style="edgeStyle=none;curved=1;rounded=0;orthogonalLoop=1;jettySize=auto;html=1;fontSize=12;startSize=8;endSize=8;" parent="1" source="UsO85r2VAABwQKt_Czv6-13" target="UsO85r2VAABwQKt_Czv6-14" edge="1">
          <mxGeometry relative="1" as="geometry" />
        </mxCell>
        <mxCell id="UsO85r2VAABwQKt_Czv6-49" style="edgeStyle=none;curved=1;rounded=0;orthogonalLoop=1;jettySize=auto;html=1;fontSize=12;startSize=8;endSize=8;" parent="1" source="UsO85r2VAABwQKt_Czv6-13" edge="1">
          <mxGeometry relative="1" as="geometry">
            <mxPoint x="389.9999999999999" y="730" as="targetPoint" />
          </mxGeometry>
        </mxCell>
        <mxCell id="UsO85r2VAABwQKt_Czv6-13" value="is dirty?" style="rhombus;whiteSpace=wrap;html=1;fillColor=#dae8fc;strokeColor=#6c8ebf;" parent="1" vertex="1">
          <mxGeometry x="95" y="690" width="120" height="80" as="geometry" />
        </mxCell>
        <mxCell id="UsO85r2VAABwQKt_Czv6-44" style="edgeStyle=none;curved=1;rounded=0;orthogonalLoop=1;jettySize=auto;html=1;entryX=0.5;entryY=0;entryDx=0;entryDy=0;fontSize=12;startSize=8;endSize=8;" parent="1" source="UsO85r2VAABwQKt_Czv6-14" target="xK0XaiJXvr3UYsudPGjT-7" edge="1">
          <mxGeometry relative="1" as="geometry">
            <mxPoint x="155" y="910" as="targetPoint" />
          </mxGeometry>
        </mxCell>
        <mxCell id="UsO85r2VAABwQKt_Czv6-14" value="is outdated?" style="rhombus;whiteSpace=wrap;html=1;fillColor=#dae8fc;strokeColor=#6c8ebf;" parent="1" vertex="1">
          <mxGeometry x="95" y="800" width="120" height="80" as="geometry" />
        </mxCell>
        <mxCell id="UsO85r2VAABwQKt_Czv6-16" value="end" style="rounded=1;whiteSpace=wrap;html=1;fillColor=#f8cecc;strokeColor=#b85450;" parent="1" vertex="1">
          <mxGeometry x="122.5" y="1100" width="65" height="20" as="geometry" />
        </mxCell>
        <mxCell id="UsO85r2VAABwQKt_Czv6-17" value="" style="rounded=0;whiteSpace=wrap;html=1;fillColor=#FFFAF2;strokeColor=#d6b656;" parent="1" vertex="1">
          <mxGeometry x="320" y="250" width="630" height="430" as="geometry" />
        </mxCell>
        <mxCell id="UsO85r2VAABwQKt_Czv6-18" value="" style="rounded=0;whiteSpace=wrap;html=1;fillColor=#FFFAF2;strokeColor=#d6b656;" parent="1" vertex="1">
          <mxGeometry x="460" y="280" width="480" height="370" as="geometry" />
        </mxCell>
        <mxCell id="UsO85r2VAABwQKt_Czv6-77" style="edgeStyle=none;curved=1;rounded=0;orthogonalLoop=1;jettySize=auto;html=1;fontSize=12;startSize=8;endSize=8;" parent="1" source="UsO85r2VAABwQKt_Czv6-19" edge="1">
          <mxGeometry relative="1" as="geometry">
            <mxPoint x="390" y="520" as="targetPoint" />
          </mxGeometry>
        </mxCell>
        <mxCell id="UsO85r2VAABwQKt_Czv6-19" value="clean step" style="rounded=0;whiteSpace=wrap;html=1;fillColor=#dae8fc;strokeColor=#6c8ebf;" parent="1" vertex="1">
          <mxGeometry x="340" y="594.5" width="100" height="60" as="geometry" />
        </mxCell>
        <mxCell id="UsO85r2VAABwQKt_Czv6-58" style="edgeStyle=none;curved=1;rounded=0;orthogonalLoop=1;jettySize=auto;html=1;entryX=0;entryY=0.5;entryDx=0;entryDy=0;fontSize=12;startSize=8;endSize=8;" parent="1" source="UsO85r2VAABwQKt_Czv6-20" target="UsO85r2VAABwQKt_Czv6-22" edge="1">
          <mxGeometry relative="1" as="geometry" />
        </mxCell>
        <mxCell id="UsO85r2VAABwQKt_Czv6-20" value="get&amp;nbsp; dependencies" style="rounded=0;whiteSpace=wrap;html=1;fillColor=#dae8fc;strokeColor=#6c8ebf;" parent="1" vertex="1">
          <mxGeometry x="480" y="490" width="100" height="60" as="geometry" />
        </mxCell>
        <mxCell id="UsO85r2VAABwQKt_Czv6-60" style="edgeStyle=orthogonalEdgeStyle;rounded=0;orthogonalLoop=1;jettySize=auto;html=1;entryX=0;entryY=0.5;entryDx=0;entryDy=0;fontSize=12;startSize=8;endSize=8;" parent="1" source="UsO85r2VAABwQKt_Czv6-22" target="UsO85r2VAABwQKt_Czv6-23" edge="1">
          <mxGeometry relative="1" as="geometry" />
        </mxCell>
        <mxCell id="UsO85r2VAABwQKt_Czv6-61" style="edgeStyle=orthogonalEdgeStyle;rounded=0;orthogonalLoop=1;jettySize=auto;html=1;entryX=0;entryY=0.5;entryDx=0;entryDy=0;fontSize=12;startSize=8;endSize=8;" parent="1" source="UsO85r2VAABwQKt_Czv6-22" target="UsO85r2VAABwQKt_Czv6-24" edge="1">
          <mxGeometry relative="1" as="geometry" />
        </mxCell>
        <mxCell id="UsO85r2VAABwQKt_Czv6-62" style="edgeStyle=orthogonalEdgeStyle;rounded=0;orthogonalLoop=1;jettySize=auto;html=1;entryX=0;entryY=0.5;entryDx=0;entryDy=0;fontSize=12;startSize=8;endSize=8;" parent="1" source="UsO85r2VAABwQKt_Czv6-22" target="UsO85r2VAABwQKt_Czv6-25" edge="1">
          <mxGeometry relative="1" as="geometry" />
        </mxCell>
        <mxCell id="UsO85r2VAABwQKt_Czv6-63" style="edgeStyle=orthogonalEdgeStyle;rounded=0;orthogonalLoop=1;jettySize=auto;html=1;entryX=0;entryY=0.5;entryDx=0;entryDy=0;fontSize=12;startSize=8;endSize=8;" parent="1" source="UsO85r2VAABwQKt_Czv6-22" target="UsO85r2VAABwQKt_Czv6-26" edge="1">
          <mxGeometry relative="1" as="geometry" />
        </mxCell>
        <mxCell id="UsO85r2VAABwQKt_Czv6-22" value="run lifecycle for each dep" style="shape=process;whiteSpace=wrap;html=1;backgroundOutline=1;fillColor=#dae8fc;strokeColor=#6c8ebf;" parent="1" vertex="1">
          <mxGeometry x="620" y="490" width="100" height="60" as="geometry" />
        </mxCell>
        <mxCell id="UsO85r2VAABwQKt_Czv6-23" value="run pull" style="rounded=0;whiteSpace=wrap;html=1;fillColor=#e1d5e7;strokeColor=#9673a6;" parent="1" vertex="1">
          <mxGeometry x="820" y="300" width="90" height="50" as="geometry" />
        </mxCell>
        <mxCell id="UsO85r2VAABwQKt_Czv6-24" value="run build" style="rounded=0;whiteSpace=wrap;html=1;fillColor=#e1d5e7;strokeColor=#9673a6;" parent="1" vertex="1">
          <mxGeometry x="820" y="380" width="90" height="50" as="geometry" />
        </mxCell>
        <mxCell id="UsO85r2VAABwQKt_Czv6-25" value="run stage" style="rounded=0;whiteSpace=wrap;html=1;fillColor=#e1d5e7;strokeColor=#9673a6;" parent="1" vertex="1">
          <mxGeometry x="820" y="460" width="90" height="50" as="geometry" />
        </mxCell>
        <mxCell id="UsO85r2VAABwQKt_Czv6-26" value="run prime" style="rounded=0;whiteSpace=wrap;html=1;fillColor=#e1d5e7;strokeColor=#9673a6;" parent="1" vertex="1">
          <mxGeometry x="820" y="540" width="90" height="50" as="geometry" />
        </mxCell>
        <mxCell id="UsO85r2VAABwQKt_Czv6-82" style="edgeStyle=none;curved=1;rounded=0;orthogonalLoop=1;jettySize=auto;html=1;fontSize=12;startSize=8;endSize=8;" parent="1" source="UsO85r2VAABwQKt_Czv6-29" target="UsO85r2VAABwQKt_Czv6-81" edge="1">
          <mxGeometry relative="1" as="geometry" />
        </mxCell>
        <mxCell id="UsO85r2VAABwQKt_Czv6-29" value="validate schema" style="rounded=0;whiteSpace=wrap;html=1;fillColor=#dae8fc;strokeColor=#6c8ebf;" parent="1" vertex="1">
          <mxGeometry x="105" y="210" width="100" height="60" as="geometry" />
        </mxCell>
        <mxCell id="UsO85r2VAABwQKt_Czv6-30" value="&lt;i&gt;rerun step&lt;/i&gt;" style="text;html=1;align=center;verticalAlign=middle;whiteSpace=wrap;rounded=0;" parent="1" vertex="1">
          <mxGeometry x="320" y="250" width="70" height="30" as="geometry" />
        </mxCell>
        <mxCell id="UsO85r2VAABwQKt_Czv6-31" value="&lt;i&gt;run step&lt;/i&gt;" style="text;html=1;align=center;verticalAlign=middle;whiteSpace=wrap;rounded=0;" parent="1" vertex="1">
          <mxGeometry x="460" y="280" width="70" height="30" as="geometry" />
        </mxCell>
        <mxCell id="UsO85r2VAABwQKt_Czv6-32" value="" style="rounded=0;whiteSpace=wrap;html=1;fillColor=#FFFAF2;strokeColor=#d6b656;" parent="1" vertex="1">
          <mxGeometry x="490" y="730" width="190" height="200" as="geometry" />
        </mxCell>
        <mxCell id="UsO85r2VAABwQKt_Czv6-55" style="edgeStyle=orthogonalEdgeStyle;rounded=0;orthogonalLoop=1;jettySize=auto;html=1;entryX=0;entryY=0.5;entryDx=0;entryDy=0;fontSize=12;startSize=8;endSize=8;" parent="1" source="UsO85r2VAABwQKt_Czv6-33" target="UsO85r2VAABwQKt_Czv6-35" edge="1">
          <mxGeometry relative="1" as="geometry">
            <Array as="points">
              <mxPoint x="510" y="840" />
              <mxPoint x="510" y="795" />
            </Array>
          </mxGeometry>
        </mxCell>
        <mxCell id="UsO85r2VAABwQKt_Czv6-56" style="edgeStyle=orthogonalEdgeStyle;rounded=0;orthogonalLoop=1;jettySize=auto;html=1;entryX=0;entryY=0.5;entryDx=0;entryDy=0;fontSize=12;startSize=8;endSize=8;curved=0;" parent="1" source="UsO85r2VAABwQKt_Czv6-33" target="UsO85r2VAABwQKt_Czv6-36" edge="1">
          <mxGeometry relative="1" as="geometry">
            <Array as="points">
              <mxPoint x="510" y="840" />
              <mxPoint x="510" y="875" />
            </Array>
          </mxGeometry>
        </mxCell>
        <mxCell id="UsO85r2VAABwQKt_Czv6-74" style="edgeStyle=none;curved=1;rounded=0;orthogonalLoop=1;jettySize=auto;html=1;entryX=0.5;entryY=1;entryDx=0;entryDy=0;fontSize=12;startSize=8;endSize=8;" parent="1" source="UsO85r2VAABwQKt_Czv6-33" target="UsO85r2VAABwQKt_Czv6-19" edge="1">
          <mxGeometry relative="1" as="geometry" />
        </mxCell>
        <mxCell id="UsO85r2VAABwQKt_Czv6-33" value="step &amp;gt;= STAGE?" style="rhombus;whiteSpace=wrap;html=1;fillColor=#dae8fc;strokeColor=#6c8ebf;" parent="1" vertex="1">
          <mxGeometry x="330" y="800" width="120" height="80" as="geometry" />
        </mxCell>
        <mxCell id="UsO85r2VAABwQKt_Czv6-34" value="&lt;i&gt;update step&lt;/i&gt;" style="text;html=1;align=center;verticalAlign=middle;whiteSpace=wrap;rounded=0;" parent="1" vertex="1">
          <mxGeometry x="490" y="730" width="70" height="30" as="geometry" />
        </mxCell>
        <mxCell id="UsO85r2VAABwQKt_Czv6-35" value="update pull" style="rounded=0;whiteSpace=wrap;html=1;fillColor=#e1d5e7;strokeColor=#9673a6;" parent="1" vertex="1">
          <mxGeometry x="560" y="770" width="90" height="50" as="geometry" />
        </mxCell>
        <mxCell id="UsO85r2VAABwQKt_Czv6-36" value="update build" style="rounded=0;whiteSpace=wrap;html=1;fillColor=#e1d5e7;strokeColor=#9673a6;" parent="1" vertex="1">
          <mxGeometry x="560" y="850" width="90" height="50" as="geometry" />
        </mxCell>
        <mxCell id="UsO85r2VAABwQKt_Czv6-46" style="edgeStyle=none;curved=1;rounded=0;orthogonalLoop=1;jettySize=auto;html=1;fontSize=12;startSize=8;endSize=8;" parent="1" source="UsO85r2VAABwQKt_Czv6-7" target="UsO85r2VAABwQKt_Czv6-20" edge="1">
          <mxGeometry relative="1" as="geometry" />
        </mxCell>
        <mxCell id="UsO85r2VAABwQKt_Czv6-47" style="edgeStyle=none;curved=1;rounded=0;orthogonalLoop=1;jettySize=auto;html=1;entryX=0;entryY=0.5;entryDx=0;entryDy=0;fontSize=12;startSize=8;endSize=8;" parent="1" source="UsO85r2VAABwQKt_Czv6-12" target="UsO85r2VAABwQKt_Czv6-19" edge="1">
          <mxGeometry relative="1" as="geometry" />
        </mxCell>
        <mxCell id="UsO85r2VAABwQKt_Czv6-50" style="edgeStyle=none;curved=1;rounded=0;orthogonalLoop=1;jettySize=auto;html=1;fontSize=12;startSize=8;endSize=8;" parent="1" source="UsO85r2VAABwQKt_Czv6-14" edge="1">
          <mxGeometry relative="1" as="geometry">
            <mxPoint x="330" y="840" as="targetPoint" />
          </mxGeometry>
        </mxCell>
        <mxCell id="UsO85r2VAABwQKt_Czv6-59" style="edgeStyle=orthogonalEdgeStyle;rounded=0;orthogonalLoop=1;jettySize=auto;html=1;entryX=0.865;entryY=0.002;entryDx=0;entryDy=0;entryPerimeter=0;fontSize=12;startSize=8;endSize=8;dashed=1;" parent="1" source="UsO85r2VAABwQKt_Czv6-22" target="UsO85r2VAABwQKt_Czv6-6" edge="1">
          <mxGeometry relative="1" as="geometry">
            <Array as="points">
              <mxPoint x="670" y="420" />
              <mxPoint x="224" y="420" />
            </Array>
          </mxGeometry>
        </mxCell>
        <mxCell id="UsO85r2VAABwQKt_Czv6-65" value="Y" style="text;html=1;align=center;verticalAlign=middle;whiteSpace=wrap;rounded=0;" parent="1" vertex="1">
          <mxGeometry x="140" y="557.5" width="10" height="15" as="geometry" />
        </mxCell>
        <mxCell id="UsO85r2VAABwQKt_Czv6-67" value="N" style="text;html=1;align=center;verticalAlign=middle;whiteSpace=wrap;rounded=0;" parent="1" vertex="1">
          <mxGeometry x="140" y="664.5" width="10" height="15" as="geometry" />
        </mxCell>
        <mxCell id="UsO85r2VAABwQKt_Czv6-68" value="Y" style="text;html=1;align=center;verticalAlign=middle;whiteSpace=wrap;rounded=0;" parent="1" vertex="1">
          <mxGeometry x="220" y="820" width="10" height="15" as="geometry" />
        </mxCell>
        <mxCell id="UsO85r2VAABwQKt_Czv6-69" value="Y" style="text;html=1;align=center;verticalAlign=middle;whiteSpace=wrap;rounded=0;" parent="1" vertex="1">
          <mxGeometry x="220" y="605" width="10" height="15" as="geometry" />
        </mxCell>
        <mxCell id="UsO85r2VAABwQKt_Czv6-70" value="N" style="text;html=1;align=center;verticalAlign=middle;whiteSpace=wrap;rounded=0;" parent="1" vertex="1">
          <mxGeometry x="140" y="770" width="10" height="15" as="geometry" />
        </mxCell>
        <mxCell id="UsO85r2VAABwQKt_Czv6-71" value="N" style="text;html=1;align=center;verticalAlign=middle;whiteSpace=wrap;rounded=0;" parent="1" vertex="1">
          <mxGeometry x="140" y="880" width="10" height="15" as="geometry" />
        </mxCell>
        <mxCell id="UsO85r2VAABwQKt_Czv6-72" value="N" style="text;html=1;align=center;verticalAlign=middle;whiteSpace=wrap;rounded=0;" parent="1" vertex="1">
          <mxGeometry x="450" y="820" width="10" height="15" as="geometry" />
        </mxCell>
        <mxCell id="UsO85r2VAABwQKt_Czv6-73" value="Y" style="text;html=1;align=center;verticalAlign=middle;whiteSpace=wrap;rounded=0;" parent="1" vertex="1">
          <mxGeometry x="370" y="785" width="10" height="15" as="geometry" />
        </mxCell>
        <mxCell id="UsO85r2VAABwQKt_Czv6-80" style="edgeStyle=none;curved=1;rounded=0;orthogonalLoop=1;jettySize=auto;html=1;entryX=0.5;entryY=0;entryDx=0;entryDy=0;fontSize=12;startSize=8;endSize=8;" parent="1" source="UsO85r2VAABwQKt_Czv6-76" target="UsO85r2VAABwQKt_Czv6-16" edge="1">
          <mxGeometry relative="1" as="geometry" />
        </mxCell>
        <mxCell id="UsO85r2VAABwQKt_Czv6-76" value="run pack" style="rounded=0;whiteSpace=wrap;html=1;fillColor=#e1d5e7;strokeColor=#9673a6;" parent="1" vertex="1">
          <mxGeometry x="110" y="1020" width="90" height="50" as="geometry" />
        </mxCell>
        <mxCell id="UsO85r2VAABwQKt_Czv6-83" style="edgeStyle=none;curved=1;rounded=0;orthogonalLoop=1;jettySize=auto;html=1;fontSize=12;startSize=8;endSize=8;" parent="1" source="UsO85r2VAABwQKt_Czv6-81" target="UsO85r2VAABwQKt_Czv6-4" edge="1">
          <mxGeometry relative="1" as="geometry" />
        </mxCell>
        <mxCell id="UsO85r2VAABwQKt_Czv6-81" value="configure repositories" style="rounded=0;whiteSpace=wrap;html=1;fillColor=#dae8fc;strokeColor=#6c8ebf;" parent="1" vertex="1">
          <mxGeometry x="105" y="290" width="100" height="60" as="geometry" />
        </mxCell>
        <mxCell id="xK0XaiJXvr3UYsudPGjT-2" value="Y" style="text;html=1;align=center;verticalAlign=middle;whiteSpace=wrap;rounded=0;" vertex="1" parent="1">
          <mxGeometry x="220" y="712.5" width="10" height="15" as="geometry" />
        </mxCell>
        <mxCell id="xK0XaiJXvr3UYsudPGjT-7" value="skip step" style="rounded=0;whiteSpace=wrap;html=1;fillColor=#e1d5e7;strokeColor=#9673a6;" vertex="1" parent="1">
          <mxGeometry x="110" y="910" width="90" height="50" as="geometry" />
        </mxCell>
      </root>
    </mxGraphModel>
  </diagram>
</mxfile>
